<svg width="22" height="22" viewBox="0 0 22 22" fill="none" xmlns="http://www.w3.org/2000/svg">
<path fill-rule="evenodd" clip-rule="evenodd" d="M11.0002 1.848C12.7948 1.848 14.2304 3.28361 14.2304 5.07812V12.6151C14.2304 12.9859 14.4696 13.297 14.8285 13.4046L15.666 13.8114C16.2641 14.0507 16.7427 14.6488 16.7427 15.3068V17.0415C16.7427 18.7762 15.3669 20.152 13.6322 20.152H10.8806C9.14592 20.152 7.77013 18.7762 7.77013 17.0415V9.38494C7.77013 9.02604 7.53086 8.72695 7.23177 8.60732L6.2747 8.06897C5.67653 7.8297 5.25781 7.29135 5.25781 6.69318V5.07812C5.25781 3.34342 6.69342 1.848 8.42811 1.848H11.0002ZM8.60756 4.59958C8.12903 4.59958 7.77013 4.95848 7.77013 5.43702V8.5475C7.77013 8.84659 7.94958 9.08586 8.18885 9.24138L8.7272 9.62421L10.0432 10.5215C10.2226 10.7009 10.4021 10.9402 10.4021 11.2991V16.8022C10.4021 17.2808 10.761 17.6397 11.2395 17.6397H13.3929C13.8715 17.6397 14.2304 17.2808 14.2304 16.8022V13.5721C14.2304 13.2132 14.0509 12.9141 13.7518 12.7347L11.9573 11.5384C11.7779 11.3589 11.6582 11.0598 11.6582 10.7607V5.43702C11.6582 4.95848 11.2993 4.59958 10.8208 4.59958H8.60756Z" fill="white"/>
</svg>
